<svg width="174" height="179" viewBox="0 0 174 179" xmlns="http://www.w3.org/2000/svg"><title>B7CD1842-BD6C-4C92-BD2D-7530D65DA057</title><g fill="none" fill-rule="evenodd"><path d="M.033 175.615c0 3.154 173.619 3.487 173.619.066 0-3.422-173.619-3.22-173.619-.066z" fill="#252528" opacity=".25"/><path fill="#252528" d="M74.697 151.409l-2.619 1.221 3.23 14.648 7.33.61.193-1.377-4.12-1.064-.261-10.376z"/><path fill="#FFF" d="M72.864 151.932l2.89 15.213 7.087.661-.203.518-7.593-.697-3.404-15.085z"/><path d="M77.053 154.464s3.578-4.36 4.277.175l-3.753.959" fill="#252528"/><path d="M77.575 108.01c-5.913 5.85 4.244 10.806-.91 33.363l3.087.319 5.383-27.318c8.1-4.203-1.328-12.532-7.56-6.364z" fill="#3F0D24"/><path d="M81.612 108.343s-3.47 2.704-2.38 7.042c2.07 8.287.62 19.497-1.243 25.69" stroke="#230714" stroke-width=".5" stroke-linecap="round" stroke-linejoin="round" stroke-dasharray=".299"/><path fill="#DD7362" d="M78.175 148.745l1.577-7.664-2.632-.01-.917 7.674z"/><path fill="#74002D" opacity=".25" style="mix-blend-mode:color-burn" d="M76.666 144.876l2.67-1.78.416-2.015-2.632-.01z"/><path fill="#252528" d="M75.307 154.2l.448-6.915 3.188.544-1.555 6.732z"/><path d="M75.265 146.894l2.372.351 1.63.241.538.08c.13.019.207.037.207.037l-.15.811s-.075-.01-.207-.038l-.53-.118-1.61-.358-2.34-.517.09-.49z" fill="#252528"/><path d="M75.555 141.11l.164.82a.46.46 0 0 0 .415.37l4.422.31a.46.46 0 0 0 .474-.334l.458-1.612a.459.459 0 0 0-.486-.583l-5.045.486a.46.46 0 0 0-.402.544z" fill="#5B0025"/><path d="M78.088 75.948c6.427 16.78 10.471 33.741.664 36.175l-17.478-35.92 16.814-.255z" fill="#3F0D24"/><path d="M68.122 76.099l12.868 32.45" stroke="#230714" stroke-width=".5" stroke-linecap="round" stroke-linejoin="round" stroke-dasharray=".299"/><path d="M83.723 135.764l-4.471 14.476-.52-.155 4.2-14.557z" fill="#252528"/><path d="M79.888 134.62l-.1 1.499 6.694.075.254-1.474z" fill="#252528"/><path d="M55.854 146.805l.008-.62v-.33l-.012-.371-.013-.423c0-.15-.022-.31-.032-.474l-.04-.517-.07-.55c-.039-.38-.118-.773-.187-1.184-.038-.207-.089-.413-.133-.62l-.07-.316-.084-.31c-.06-.207-.11-.425-.176-.636l-.207-.635c-.067-.212-.152-.414-.226-.627l-.115-.31-.127-.304c-.087-.202-.166-.405-.257-.6l-.273-.574-.068-.141-.072-.137-.143-.27c-.095-.176-.182-.354-.284-.517-.194-.33-.375-.646-.563-.924l-.262-.405-.253-.354-.221-.31c-.068-.096-.139-.18-.198-.258l-.38-.486.357-.304.415.48c.064.078.14.16.213.256l.241.31.274.353.287.403c.207.277.405.594.621.931.111.164.207.342.31.517l.16.272.081.139.086.128.31.582c.104.198.194.405.293.61l.146.31.132.317c.086.214.183.425.262.642l.238.65c.078.218.14.438.207.655l.104.325.087.326c.056.216.118.429.166.64.09.425.19.835.25 1.229l.096.574.066.54c.019.174.047.337.056.498l.034.456.03.402.01.329.02.62-1.094.013zM28.92 158.947l.207.124.26.151c.05.028.103.062.16.092l.178.093c.127.065.263.14.415.216l.51.238c.183.082.383.16.591.246.208.087.435.159.668.244.233.084.482.153.74.225.256.072.524.144.804.197a14.658 14.658 0 0 0 5.666.104 14.772 14.772 0 0 0 3.727-1.185c.28-.141.56-.272.82-.423.132-.075.266-.142.39-.222l.373-.23c.124-.072.239-.156.355-.234.116-.079.23-.155.34-.234.216-.165.431-.31.622-.476.392-.315.736-.62 1.035-.909l.406-.405.328-.36.14-.154.119-.142.185-.224.154-.186.321.245-.152.197-.183.236-.117.149-.14.163-.326.382-.405.431c-.295.302-.64.633-1.035.972-.196.173-.414.336-.63.518-.112.084-.23.167-.346.253-.117.086-.235.175-.362.254l-.379.25c-.127.088-.264.161-.397.243-.267.166-.553.31-.84.467a15.455 15.455 0 0 1-9.843 1.435c-.3-.048-.584-.122-.864-.182s-.541-.144-.796-.215a10.448 10.448 0 0 1-.725-.238c-.23-.083-.442-.163-.64-.243l-.556-.243c-.171-.079-.328-.158-.47-.226l-.2-.097c-.062-.031-.115-.061-.167-.089l-.259-.14-.215-.118.533-.95zm-.632-31.576l-.562.244c-.088.039-.192.08-.293.129l-.329.16-.375.181-.414.221c-.29.15-.591.335-.913.525-.162.092-.32.207-.485.31l-.25.164-.126.082-.125.09-.506.362c-.17.125-.334.26-.504.392l-.254.201-.246.212c-.164.144-.334.28-.493.43l-.477.448c-.157.15-.306.31-.457.463l-.224.23-.207.238c-.14.158-.282.31-.414.469-.257.32-.518.62-.737.93l-.327.443-.287.427c-.09.137-.184.265-.26.395l-.22.365-.197.32-.153.28-.214.394c-.05.09-.075.14-.075.14l-.371-.18s.027-.05.072-.145l.2-.414.143-.294.183-.337.207-.385c.072-.136.162-.272.248-.414l.273-.452.31-.47c.208-.327.462-.65.712-.992.128-.169.267-.333.403-.504l.208-.256.22-.25c.15-.165.294-.338.45-.501l.474-.489c.156-.164.327-.31.49-.471l.246-.233.253-.221c.17-.145.335-.295.505-.433l.51-.403.125-.103.127-.094.252-.183c.168-.119.327-.243.492-.347.327-.216.633-.424.932-.595l.42-.253.394-.216.347-.188c.104-.059.207-.103.291-.146l.55-.27.458.994z" fill="#FFF"/><path d="M107.006 94.607l3.416-4.768.162-.224.233-.104a17.232 17.232 0 0 1 1.837-.694c.634-.2 1.283-.352 1.94-.455a10.708 10.708 0 0 1 2.022-.124c.682.023 1.36.118 2.022.283a10.29 10.29 0 0 1 1.907.688 12.87 12.87 0 0 1 1.72.994c1.084.738 2.04 1.589 2.958 2.427.459.419.908.836 1.36 1.234.44.392.899.761 1.376 1.106a6.67 6.67 0 0 0 1.444.798c.478.19.99.28 1.504.263a4.315 4.315 0 0 0 1.523-.36 7.63 7.63 0 0 0 1.458-.841c.94-.673 1.799-1.513 2.61-2.4l1.063.948c-.839.948-1.738 1.861-2.796 2.654a9.12 9.12 0 0 1-1.73 1.034 5.855 5.855 0 0 1-2.057.517c-.364.02-.729.001-1.089-.056a5.673 5.673 0 0 1-1.035-.272 8.242 8.242 0 0 1-1.812-.954 18.262 18.262 0 0 1-1.534-1.188c-.483-.413-.946-.827-1.407-1.23-.92-.813-1.832-1.59-2.804-2.226-.972-.637-2.001-1.127-3.083-1.375a8.32 8.32 0 0 0-3.318-.07c-.562.099-1.116.239-1.656.42-.552.184-1.092.4-1.619.645l.395-.327-3.313 4.84-1.697-1.183z" fill="#252528"/><path d="M105.239 96.517l.293-.334.352-.402.527-.558.152-.16.165-.16.353-.344c.12-.121.255-.24.394-.363s.282-.253.434-.383a14.313 14.313 0 0 1 2.235-1.551c.112-.06.222-.126.338-.183l.357-.17c.236-.118.496-.206.752-.31.128-.053.266-.087.4-.132.134-.044.27-.09.414-.12l.427-.103a1.98 1.98 0 0 1 .217-.042l.22-.034a4.4 4.4 0 0 1 .448-.056c.151-.01.303-.026.455-.034h.462c.155 0 .31.015.465.022a9.39 9.39 0 0 1 1.856.326c1.214.364 2.376.88 3.46 1.536 1.09.635 2.123 1.344 3.143 2.047 1.021.702 2.026 1.39 3.047 1.979.5.292 1.014.558 1.54.797a11.18 11.18 0 0 0 1.554.564 7.443 7.443 0 0 0 2.3.269c.245-.015.49-.041.732-.08.241-.029.473-.095.705-.146.115-.03.227-.07.339-.103.112-.032.222-.07.33-.113.217-.085.432-.162.633-.266l.304-.143.29-.16c.7-.398 1.363-.86 1.978-1.38.55-.476 1.013-.917 1.378-1.299l.485-.517.344-.393.288-.328.828.682-.29.348-.348.414-.495.55c-.374.413-.85.889-1.428 1.413-.66.587-1.374 1.11-2.132 1.565l-.322.187-.341.172c-.227.121-.472.22-.72.323-.122.055-.252.096-.382.14-.13.045-.26.091-.394.13-.271.068-.544.15-.828.194-.289.054-.58.093-.872.117a8.904 8.904 0 0 1-2.727-.247 12.507 12.507 0 0 1-1.779-.594 18.048 18.048 0 0 1-1.695-.827c-1.105-.601-2.157-1.29-3.197-1.966-1.039-.676-2.06-1.344-3.09-1.906-1.031-.562-2.071-1.027-3.092-1.29a7.61 7.61 0 0 0-1.51-.227c-.124 0-.246-.015-.367-.009l-.362.013c-.119.008-.237.025-.354.036-.117.01-.233.029-.348.053a7.397 7.397 0 0 0-2.478.942c-.67.405-1.302.873-1.884 1.396-.132.12-.256.238-.378.351-.122.113-.24.221-.346.334l-.31.319-.145.149-.13.145-.453.502-.342.414-.285.341-1.57-1.337z" fill="#252528"/><path d="M111.59 104.472l-3.248-9.786 2.999-.936 1.936 10.338z" fill="#252528"/><path fill="#C4304C" d="M39.07 145.855l21.264-42.489.354.416-19.319 42.278z"/><path fill="#490D26" d="M60.026 103.98l-1.09 2.184.18 1.056 1.408-3.079z"/><path fill="#C4304C" d="M56.357 107.907l1.264 1.696-.334.859-1.978-1.1z"/><path d="M37.179 115.972c-16.342 0-29.59 13.24-29.59 29.562 0 16.322 13.253 29.561 29.59 29.561 16.336 0 29.588-13.24 29.588-29.561 0-16.322-13.247-29.562-29.588-29.562zm0 56.52c-14.902 0-26.983-12.07-26.983-26.958 0-14.889 12.063-25.617 26.965-25.617s26.303 10.79 26.303 25.678c0 14.888-11.383 26.896-26.285 26.896z" fill="#FFF"/><path d="M18.402 122.688v1.198c8.966-7.176 21.748-8.611 32.371-2.636 10.767 6.06 16.171 17.965 14.464 29.494h1.067c4.874-27.361-27.016-45.213-47.902-28.056z" fill="#74002D" opacity=".15" style="mix-blend-mode:multiply"/><path d="M37.179 114.591c-17.105 0-30.97 13.853-30.97 30.941 0 17.089 13.865 30.942 30.97 30.942 17.104 0 30.97-13.853 30.97-30.942 0-17.088-13.866-30.94-30.97-30.94zm0 59.452c-15.76 0-28.537-12.765-28.537-28.51 0-15.746 12.773-28.512 28.537-28.512 15.763 0 28.536 12.765 28.536 28.51 0 15.746-12.776 28.512-28.536 28.512z" fill="#252528"/><path d="M36.493 145.281v.084l.006.033c.007.03.015.058.024.087.092.23.23.44.408.613.483.524 1.404 1.172 2.659 1.85a42.466 42.466 0 0 0 4.717 2.134 86.583 86.583 0 0 0 6.38 2.184c2.369.71 4.96 1.4 7.725 2.017a90.954 90.954 0 0 0 8.766 1.533c1.53.185 3.09.327 4.67.394 1.587.079 3.178.051 4.762-.083.792-.07 1.58-.19 2.357-.359.767-.16 1.514-.402 2.228-.724.696-.324 1.335-.752 1.798-1.307a3.49 3.49 0 0 0 .809-1.96c.018-.184.024-.37.019-.557l-.007-.125a.969.969 0 0 0-.012-.133 3.655 3.655 0 0 0-.392-1.28 5.69 5.69 0 0 0-1.45-1.713c-.61-.493-1.27-.923-1.967-1.283a20.612 20.612 0 0 0-2.174-.98 36.008 36.008 0 0 0-4.564-1.382 60.488 60.488 0 0 0-4.596-.906c-3.045-.483-6.022-.768-8.849-.938a106.66 106.66 0 0 0-7.982-.178 81.07 81.07 0 0 0-6.73.367c-1.991.198-3.727.47-5.11.801-.615.14-1.22.32-1.81.538-.422.148-.823.35-1.193.6-.283.203-.414.395-.456.51a.485.485 0 0 0-.034.177v-.013h-.002zm-.67.013s0-.038.004-.11c.01-.105.035-.21.074-.31.06-.15.143-.29.247-.413.13-.151.277-.286.44-.401.701-.508 1.811-.912 3.239-1.258 1.427-.347 3.181-.62 5.198-.84 2.017-.22 4.299-.36 6.79-.431 2.49-.072 5.191-.052 8.044.083 2.852.136 5.858.39 8.949.842 1.544.228 3.11.507 4.683.866 1.599.358 3.171.823 4.708 1.39.786.293 1.553.633 2.298 1.018.765.393 1.488.862 2.158 1.402a6.76 6.76 0 0 1 1.726 2.042 4.743 4.743 0 0 1 .512 1.664c.007.058.01.117.016.174.005.058.007.124.009.185.006.227-.002.454-.024.68a4.533 4.533 0 0 1-1.063 2.55c-.604.715-1.379 1.216-2.174 1.585-.787.354-1.61.62-2.455.794-.822.172-1.654.293-2.49.362a35.602 35.602 0 0 1-4.91.048 60.8 60.8 0 0 1-4.742-.455c-3.095-.413-6.054-1-8.835-1.655a111.137 111.137 0 0 1-7.758-2.122 91.126 91.126 0 0 1-6.42-2.258 45.627 45.627 0 0 1-4.783-2.19c-1.288-.702-2.254-1.37-2.828-1.99a2.433 2.433 0 0 1-.552-.858 1.467 1.467 0 0 1-.044-.168l-.013-.07-.007-.067v-.1l.002.01z" fill="#FFD073"/><path d="M37.094 145.067l41.832 5.002-.34 2.576-41.637-6.425z" fill="#EA425F"/><path fill="#EA425F" d="M35.694 144.718l23.384-43.54.844.613-21.695 44.192z"/><path fill="#74002D" opacity=".25" style="mix-blend-mode:multiply" d="M59.078 101.179l-23.384 43.54.73.364.909-.657 22.194-42.921z"/><path fill="#74002D" d="M58.712 101.861l-.706 1.315.1 2.314 1.54-3.138z"/><ellipse transform="rotate(-6.03 1378.604 -256.792)" cx="2.235" cy="2.189" rx="1.974" ry="1.972" fill="#252528"/><path d="M59.769 99.11l-2.46-7.188-2.513.968 3.67 6.91z" fill="#252528"/><path d="M148.069 146.805l.008-.62v-.33l-.012-.371-.014-.423c0-.15-.021-.31-.032-.474l-.04-.517-.069-.55c-.039-.38-.119-.773-.187-1.184-.038-.207-.089-.413-.133-.62l-.07-.316-.085-.31c-.059-.207-.11-.425-.176-.636l-.207-.635c-.066-.212-.15-.414-.225-.627l-.115-.31-.128-.304c-.087-.202-.165-.405-.256-.6l-.263-.58-.068-.141-.072-.137-.143-.27c-.095-.177-.182-.355-.284-.517-.194-.331-.375-.646-.563-.925l-.262-.404-.252-.354-.223-.31c-.068-.096-.139-.18-.198-.258l-.38-.486.357-.304.415.48c.064.078.14.16.213.255l.241.31.274.353.287.404c.207.277.405.594.621.93.111.165.207.343.31.518l.16.272.081.139.076.142.31.583c.104.197.194.404.292.609l.146.31.133.318c.086.213.183.424.262.641l.238.65c.077.218.14.438.207.655l.103.325.087.326c.056.216.118.43.167.64.09.425.19.835.25 1.229l.096.574.066.54c.019.174.047.337.056.499l.034.456.03.401.01.329.02.62-1.093.005zm-26.934 12.142l.207.124.254.149c.05.028.104.062.16.092l.179.093c.126.065.263.14.414.216l.51.238c.184.082.384.16.592.246.208.087.434.159.667.243.233.085.483.154.74.226.256.072.524.144.804.196a14.659 14.659 0 0 0 5.66.107 14.772 14.772 0 0 0 3.727-1.185c.28-.141.56-.272.821-.423.132-.075.265-.142.39-.222l.372-.23c.124-.072.24-.156.355-.234.116-.079.231-.155.34-.234.216-.165.431-.31.622-.476.392-.315.736-.62 1.035-.909l.406-.405.328-.36.141-.154.118-.142.185-.224.155-.186.32.245-.152.197-.183.236-.117.149-.14.163-.326.382-.405.431c-.295.302-.64.633-1.035.972-.196.173-.414.336-.63.518-.112.084-.23.167-.346.253-.117.086-.235.175-.361.254l-.38.25c-.127.088-.263.161-.397.243-.267.166-.553.31-.84.467a15.455 15.455 0 0 1-9.843 1.435c-.3-.048-.584-.122-.864-.182s-.541-.144-.796-.215a10.448 10.448 0 0 1-.724-.238c-.23-.083-.442-.163-.641-.243l-.555-.238c-.171-.079-.327-.157-.47-.226l-.2-.097c-.062-.03-.115-.06-.167-.089l-.259-.14-.215-.117.544-.956zm-.633-31.576l-.562.244c-.088.039-.193.08-.293.129l-.33.16-.377.184-.414.222c-.291.149-.592.334-.913.524-.163.092-.32.207-.486.31l-.25.164-.126.082-.124.09-.506.362c-.17.125-.335.26-.504.393l-.254.2-.246.212c-.164.144-.335.28-.493.43l-.478.448c-.157.15-.305.31-.456.463l-.225.23-.207.238c-.14.159-.281.31-.414.469-.257.32-.518.62-.736.93l-.327.443-.287.427c-.09.137-.184.265-.26.395l-.221.365-.196.32-.153.28-.215.394c-.05.09-.074.14-.074.14l-.372-.18s.027-.05.073-.145l.2-.414.142-.294.184-.337.207-.385c.071-.136.161-.272.247-.413l.273-.453.311-.47c.207-.327.462-.65.711-.992.129-.169.267-.333.404-.504l.207-.256.22-.25c.15-.165.295-.338.45-.501l.474-.488c.156-.165.327-.31.49-.472l.246-.233.254-.221c.17-.145.334-.295.505-.433l.51-.403.125-.103.127-.093.252-.184c.167-.119.327-.243.491-.347.328-.216.634-.424.932-.595l.421-.253.394-.215.347-.189c.103-.059.207-.103.29-.145l.55-.27.462.99z" fill="#FFF"/><path d="M114.257 108.914c-26.987.282-51.902-7.956-54.233-8.747v1.369c17.07 6.156 36.144 10.63 54.265 10.441l-.032-3.063z" fill="#EA425F"/><path fill="#EA425F" d="M60.343 98.46l19.918 52.195-2.215.76-20.643-51.663z"/><path fill="#74002D" opacity=".25" style="mix-blend-mode:multiply" d="M57.403 99.752l19.88 49.757 1-.653L58.14 99.428z"/><path d="M58.316 102.038l2.485-2.333-.427-1.165c-.717.35-2.036.995-2.884 1.425l.826 2.073z" fill="#74002D"/><path fill="#EA425F" d="M56.337 99.829l.461.975 4.83-1.847-.462-1.54zm57.553 10.769c-18.703 8.052-30.784 24.574-35.807 39.834h2.004c5.861-16.239 18.264-30.349 35.173-36.23l-1.37-3.604z"/><path d="M89.474 130.87l.184-.234c.117-.147.284-.356.49-.602a59.227 59.227 0 0 1 1.535-1.774c.284-.318.577-.628.854-.918.136-.145.273-.283.401-.413.129-.13.25-.255.365-.367.226-.227.414-.414.554-.541l.207-.207.414.422-.202.207c-.128.131-.31.32-.527.55-.103.115-.225.24-.346.374-.12.134-.251.273-.38.422a47.302 47.302 0 0 0-1.6 1.884 52.077 52.077 0 0 0-1.125 1.452l-.168.23-.656-.485z" fill="#FFF"/><path d="M110.326 116.221a50.427 50.427 0 0 1 4.934-2.019l-1.003-5.287c-1.104.011-2.204.009-3.3-.009l-.262 3.047.27.008c-.095.047-.188.098-.284.146l-.355 4.114z" fill="#74002D"/><path d="M80.357 144.67c-.766-.185-1.43-1.51-2.175-1.448-.77.059-1.223 1.478-1.924 1.766-.701.289-2.028-.392-2.611.104-.583.495-.115 1.899-.518 2.558-.391.635-1.863.853-2.05 1.618-.186.764 1.027 1.63 1.084 2.379.06.77-.996 1.813-.707 2.512.289.7 1.78.701 2.278 1.284.497.582.244 2.044.904 2.449.635.39 1.831-.484 2.596-.3.765.184 1.429 1.509 2.174 1.448.771-.059 1.224-1.478 1.925-1.767.7-.288 2.028.392 2.61-.103.584-.496.116-1.9.518-2.558.392-.635 1.864-.853 2.05-1.618.187-.764-1.027-1.63-1.084-2.379-.059-.77.996-1.813.707-2.512-.288-.7-1.78-.701-2.277-1.284-.497-.582-.244-2.045-.904-2.45-.636-.39-1.831.486-2.596.3z" fill="#C4304C"/><path d="M79.316 150.244l-2.014 8.564-1.384 5.896-.456 1.942-.13.544-.048.191-1.201-.302s.014-.067.047-.191c.033-.125.082-.31.145-.54l.518-1.925 1.578-5.842 2.294-8.498.651.16z" fill="#252528"/><path d="M69.996 166.505l9.968.886-.733 2.614-9.551-1.546z" fill="#252528"/><path d="M129.396 115.972c-16.34 0-29.588 13.24-29.588 29.562 0 16.322 13.251 29.561 29.588 29.561 16.337 0 29.589-13.24 29.589-29.561 0-16.322-13.252-29.562-29.589-29.562zm0 56.52c-14.902 0-26.983-12.07-26.983-26.958 0-14.889 12.06-25.617 26.963-25.617s26.302 10.79 26.302 25.678c0 14.888-11.383 26.896-26.282 26.896z" fill="#FFF"/><path d="M110.617 122.688v1.198c8.966-7.176 21.748-8.611 32.37-2.636 10.768 6.06 16.172 17.965 14.465 29.494h1.067c4.872-27.361-27.016-45.213-47.902-28.056z" fill="#74002D" opacity=".15" style="mix-blend-mode:multiply"/><path d="M129.396 114.591c-17.104 0-30.97 13.853-30.97 30.941 0 17.089 13.866 30.942 30.97 30.942s30.97-13.853 30.97-30.942c0-17.088-13.87-30.94-30.97-30.94zm0 59.452c-15.76 0-28.537-12.765-28.537-28.51 0-15.746 12.773-28.512 28.537-28.512 15.765 0 28.537 12.765 28.537 28.51 0 15.746-12.78 28.512-28.537 28.512z" fill="#252528"/><path d="M115.904 114.97c1.256 11.317 6.534 24.147 15.595 30.977l-.568.84c-9.992-6.914-15.726-19.88-17.497-31.522l2.47-.295z" fill="#252528"/><path fill="#EA425F" d="M113.2 116.343l-3.296-12.458 4.752-1.226 1.585 12.97z"/><path fill="#252528" d="M115.239 105.879l.797 5.869-1.993.408-1.483-5.616zm-4.572.891l4.138-2.892-.145-1.19-4.617 1.721z"/><path fill="#FFD073" d="M115.32 105.212l-3.27 1.022 1.737 6.433 2.974-.43-.111-1-2.505.792-1.2-5.286 2.682-.408z"/><path fill="#EA425F" d="M112.687 116.113l.21.596 3.857-.792-.092-.82zm-3.704-12.39c.055-.055.324.96.324.96l6.218-1.307-.269-1.669s-6.326 2.074-6.273 2.016z"/><path d="M50.365 86.551l22.57 2.547a.763.763 0 0 1 .193 1.412c-8.503 4.552-20.698 4.917-25.121-.03-1.553-1.738.084-4.448 2.358-3.929z" fill="#252528"/><path d="M49.355 87.89c0 .007.02.057.076.18.084.174.18.343.288.503.169.255.36.494.57.715.274.288.574.55.895.786.386.274.795.514 1.223.718.482.222.982.407 1.494.551.55.151 1.112.263 1.679.336.145.018.29.04.437.055l.443.034c.295.03.594.031.892.04.298.008.598 0 .895-.007.297-.006.594-.028.887-.045.147-.01.293-.017.439-.031l.434-.048c.288-.032.571-.058.849-.103l.819-.123.78-.147.375-.07.361-.082.687-.155c.22-.047.428-.104.627-.158l.565-.148c.357-.087.66-.186.914-.26l.794-.234.182.59-.806.232c-.256.072-.566.169-.931.256l-.575.146c-.207.05-.414.11-.639.155l-.698.152-.367.08-.382.069-.795.144-.837.12c-.283.045-.574.07-.868.103l-.443.044c-.15.014-.3.02-.45.03-.302.015-.605.04-.912.039-.306-.002-.613.015-.92 0-.308-.016-.615-.016-.92-.048l-.458-.038c-.152-.018-.303-.04-.454-.06a12.94 12.94 0 0 1-1.75-.362 10.681 10.681 0 0 1-1.57-.594 8.714 8.714 0 0 1-1.297-.776 7.29 7.29 0 0 1-.959-.854 5.695 5.695 0 0 1-.614-.783c-.12-.18-.226-.37-.318-.566-.063-.135-.094-.228-.092-.222l.45-.164z" fill="#42B0CE"/><path d="M90.159 115.074l.805.248c3.916-11.356 12.838-11.768 5.207 1.794l.781.484c9.22-14.225-2.963-16.499-6.793-2.526z" fill="#252528"/><path fill="#FFD073" d="M89.5 114.263l-1.093 2.942 6.614 1.782 1.021-2.303z"/><path fill="#EA425F" d="M93.144 118.456l1.877.531 1.021-2.303-.983-.357z"/><path fill="#252528" d="M95.58 116.137l-1.2 3.115 2.278.747 1.35-3.183z"/><path d="M106.917 66.498s-5.758-12.986-3.775-29.258l5.653-.444.451 27.499c-.314 3.411-2.329 2.203-2.329 2.203z" fill="#DD7362"/><path d="M106.917 66.498c.15.083.311.143.48.177l.732-2.727-1.035-.206-2.899-14.916-1.406-1.978c.51 11.487 4.128 19.65 4.128 19.65z" fill="#F24E4E" opacity=".25" style="mix-blend-mode:multiply"/><path d="M102.695 44.259a62.625 62.625 0 0 0 .481 8.18l5.733-6.234.007-1.984-6.22.038z" fill="#252528"/><path d="M109.194 43.72l.957.088-.073 1.383c-3.237-.399-8.52 1.123-8.52 1.123-2.688-16.552 10.095-17.954 7.636-2.594z" fill="#74002D"/><path d="M105.18 64.7a.775.775 0 0 0 .448.748l.552.256 9.388 19.686.842-.42-7.274-21.03-3.188.03a.775.775 0 0 0-.768.73z" fill="#DD7362"/><path d="M107.396 66.675l.733-2.727-2.181.021a.775.775 0 0 0-.32 1.478l.552.256 7.61 15.96-6.394-14.988z" fill="#F24E4E" opacity=".25" style="mix-blend-mode:multiply"/><path d="M113.563 91.886l6.28 1.274c1.104-6.516-3.09-8.578-3.09-8.578l-1.62.808c.197 2.765-1.57 6.496-1.57 6.496z" fill="#DD7362"/><path d="M117.82 87.144c1.864.325 2.197-3-1.074-2.568l-1.604.81.82 1.165c-2.203 4.153-.794 5.56 1.445 5.482l.414-4.89z" fill="#E88770"/><path fill="#252528" d="M70.942 150.699l-2.619 1.22 3.23 14.649 7.33.61.193-1.378-4.12-1.063-.262-10.375z"/><path fill="#FFF" d="M69.11 151.222L72 166.436l7.085.66-.202.518-7.593-.697-3.404-15.084z"/><path d="M73.298 153.75s3.578-4.36 4.277.175l-3.753.959" fill="#252528"/><path d="M73.82 107.298c-5.913 5.851 4.244 10.807-.91 33.364l3.087.318 5.383-27.318c8.1-4.2-1.328-12.53-7.56-6.364z" fill="#490D26"/><path d="M77.857 107.632s-3.47 2.705-2.38 7.043c2.07 8.286.62 19.496-1.243 25.689" stroke="#230714" stroke-width=".5" stroke-linecap="round" stroke-linejoin="round" stroke-dasharray=".299"/><path fill="#EFA17F" d="M74.42 148.035l1.577-7.664-2.632-.01-.917 7.674z"/><path fill="#74002D" opacity=".25" style="mix-blend-mode:color-burn" d="M72.91 144.166l2.672-1.78.415-2.015-2.632-.01z"/><path fill="#252528" d="M71.552 153.489l.448-6.914 3.188.543-1.555 6.733z"/><path d="M71.51 146.184l2.372.352 1.63.24.538.08c.13.02.207.038.207.038l-.15.81s-.075-.009-.207-.038l-.53-.118-1.61-.357-2.34-.518.09-.489z" fill="#252528"/><path d="M71.8 140.397l.164.82a.46.46 0 0 0 .415.368l4.422.31a.46.46 0 0 0 .474-.332l.458-1.613a.459.459 0 0 0-.487-.582l-5.044.485a.46.46 0 0 0-.402.544z" fill="#74002D"/><path d="M74.333 75.233c4.367 11.856 10.471 33.742.664 36.175 0 0-14.332-28.444-17.478-35.92-3.146-7.475 12.451-12.106 16.814-.255z" fill="#490D26"/><path d="M64.367 75.39l12.868 32.45" stroke="#230714" stroke-width=".5" stroke-linecap="round" stroke-linejoin="round" stroke-dasharray=".299"/><path d="M77.443 81.4l1.734-8.895-24.593-8.04s-4.128 6.31-2.722 9.866c2.419 6.12 12.074 11.282 25.581 7.069z" fill="#490D26"/><path d="M78.109 77.982l.59-3.027-24.12-10.479c-.111.17-4.103 6.349-2.716 9.857 1.118 2.83 3.785 5.451 7.661 7.039-1.73-1.737-3.053-3.572-3.608-5.689 9.698 3.754 18.438 2.94 22.193 2.3z" fill="#74002D" opacity=".5" style="mix-blend-mode:multiply"/><path d="M109.706 34.005c.63 3.059 3.087 2.295 2.404-.937m-4.258 1.815a68.09 68.09 0 0 0 10.25-1.855l-1.485-3.702s-4.104 2.275-8.766 3.213v2.344z" fill="#EFA17F"/><path d="M112.888 34.17c1.1-.198 2.082-.4 2.885-.579l-1.295-3.229a33.83 33.83 0 0 1-1.54.643l-.05 3.165z" fill="#D83D54"/><path fill="#252528" d="M77.639 23.477l-.22-1.832 9.046-3.91.781 1.973z"/><path d="M96.64 26.904s-.158-8.765-5.223-9.291c-4.615-.48-20.425 13.831-22.052-3.251l-3.455.551s.789 9.4 8.047 10.154c9.95 1.035 19.146-13.81 21.878 1.98l.806-.143z" fill="#313138"/><path d="M74.265 23.8l-3.942 1.62 3.222 3.475h.821l-.101-5.096zm-1.175 3.784l-1.567-1.805 2.159-1.006.274 2.431-.866.38z" fill="#FFF"/><path fill="#313138" d="M95.391 25.242l3.785-1.58.306 1.019-3.752 1.757m4.571 1.44l-3.965.699 1.051 1.05 3.381-1.283z"/><path d="M99.531 30.69l-4.768-8.39s-21.597 2.937-39.531 20.648l12.17 12.736 32.13-24.994z" fill="#313138"/><path fill="#FFF" d="M58.739 39.217l13.154 10.967.358-.398-12.39-11.862z"/><path fill="#252528" d="M75.85 33.69l.624-.37.189.298-.621.375zm1.596-.954l.631-.353.173.293-.629.358zm1.624-.906l.64-.334.157.288-.637.338zm1.652-.858l.645-.315.142.282-.643.32zm1.673-.811l.65-.298.13.275-.648.303zm1.695-.766l.654-.28.116.267-.65.286zm1.715-.719l.658-.265.104.26-.656.269zM87.537 28l.664-.247.095.25-.663.252zm1.749-.632l.67-.23.084.242-.669.235zm1.764-.588l.676-.214.073.233-.673.219zm1.778-.544l.68-.197.065.223-.679.202zm1.79-.486l.363-.097.058.215-.363.1z"/><path fill="#FFD073" d="M97.827 22.399l2.8-.805 1.275 8.024-1.516.056z"/><path d="M82.716 36.118l-7.765-8.37s-8.367 2.91-13.705 9.918L72.235 46.7l10.481-10.583zM57.337 40.28l-2.832 3.135L67.871 56.49 72.803 52z" fill="#252528"/><path d="M77.465 37.291c-1.975-.795-1.483-5.207-5.817-3.413a.085.085 0 0 1-.11-.045c-1.88-4.293-4.588-.773-6.563-1.57a1.668 1.668 0 0 1-.932-.972.084.084 0 0 0-.162.017c-.695 4.291 4.208 6.413 6.943 4.249a.08.08 0 0 1 .132.053c.466 3.455 5.472 5.324 7.951 1.752a.084.084 0 0 0-.103-.126 1.67 1.67 0 0 1-1.34.055z" fill="#FFD073"/><path d="M62.661 53.385l.123.038a28.539 28.539 0 0 0 1.809.454c.624.136 1.386.283 2.267.414.881.13 1.88.252 2.972.335 1.092.083 2.277.123 3.533.094.628-.008 1.27-.047 1.926-.09a29.164 29.164 0 0 0 2-.207 31.519 31.519 0 0 0 4.115-.835 29.13 29.13 0 0 0 4.069-1.459 27.754 27.754 0 0 0 3.783-2.069 27.082 27.082 0 0 0 3.298-2.557 29.49 29.49 0 0 0 2.713-2.809c.75-.896 1.453-1.83 2.105-2.8l.438-.667c.142-.217.269-.438.4-.649.132-.21.26-.413.372-.62l.336-.595c.223-.382.405-.754.585-1.091.18-.337.332-.656.47-.941.282-.57.479-1.029.62-1.339l.214-.477 1.324.576-.226.49c-.148.32-.358.791-.658 1.375-.147.294-.31.621-.5.967-.188.347-.384.73-.62 1.123l-.358.612c-.12.207-.26.42-.395.638-.136.219-.273.443-.425.667l-.464.687c-.693 1-1.437 1.963-2.231 2.885a30.753 30.753 0 0 1-2.871 2.896 28.292 28.292 0 0 1-3.482 2.622 28.894 28.894 0 0 1-3.973 2.105 30.21 30.21 0 0 1-4.245 1.458c-1.401.362-2.825.63-4.263.803a34.26 34.26 0 0 1-2.06.188c-.675.047-1.336.066-1.98.066a38.9 38.9 0 0 1-8.964-.992 28.209 28.209 0 0 1-1.86-.499l-.145-.05.248-.747z" fill="#252528"/><path d="M112.491 10.806c-1.153 7.32-.068 15.425-.068 15.425s3.2 12.664 13.631 16.85c7.756-4.92 15.605-13.73 15.605-13.73l-3.114-1.645-.207-17.743-25.847.843z" fill="#EFA17F"/><path d="M120.695 32.885s4.659 1.646 12.536 2.338c0 0-8.726 4.519-11.04 3.28-2.81-1.507-1.496-5.618-1.496-5.618z" fill="#FFF"/><g fill="#74002D"><path d="M143.494 31.273c2.448-7.654-7.388-8.989-7.674-1.959-.17 4.207 2.746 6.897 6.005 7.551l.719-.903.329 1.043c3.568.237 7.196-1.965 7.412-7.273-2.797 3.17-6.791 1.541-6.791 1.541z"/><path d="M136.322 27.774s-.499 1.494-.5 1.542c-.171 4.207 2.745 6.897 6.004 7.551l.719-.903.329 1.043c1.459.097 2.928-.215 4.169-.979-9.342-.75-10.72-8.254-10.72-8.254z" opacity=".25" style="mix-blend-mode:multiply"/></g><path d="M142.783 31.158l.06.01a5.143 5.143 0 0 0 .845.05c.137 0 .286-.012.443-.028a5.05 5.05 0 0 0 1.501-.394 4.514 4.514 0 0 0 .693-.39l.104-.073.104-.077.098-.077.092-.08c.061-.052.12-.104.174-.16.112-.103.207-.215.297-.31a2.27 2.27 0 0 0 .226-.288c.06-.09.12-.164.16-.232l.132-.207.642.4-.16.23c-.05.075-.122.158-.198.257-.075.1-.174.2-.275.317-.101.116-.225.23-.36.344a3.56 3.56 0 0 1-.206.174l-.111.087-.117.083-.12.082-.124.078a5.14 5.14 0 0 1-1.964.71 6.157 6.157 0 0 1-1.027.062 5.625 5.625 0 0 1-.725-.064c-.087-.013-.156-.027-.207-.036l-.076-.016.099-.452z" fill="#74002D"/><path d="M110.279 22.366c4.294.656 5.2-3.611 4.223-6.55 0 0 3.426-.792 3.434 2.669 10.716-3.453 20.395.476 22.129-4.944l-28.096-.603-1.69 9.428z" fill="#9E3232"/><path fill="#74002D" d="M110.125 21.153l4.753-1.213.143.601-4.791 1.05zm.607-2.897l4.274.451-.039.361-4.293-.267z"/><path d="M138.128 15.83a4.277 4.277 0 0 0 1.936-2.29l-27.716-2.867-1.786 10.464c8.454-6.751 22.21-5.422 27.566-5.307z" fill="#74002D" opacity=".25" style="mix-blend-mode:multiply"/><path d="M138.709 18.878c1.496-.04 1.288 6.5-.219 6.328-1.506-.172-1.277-6.288.219-6.328z" fill="#FFF"/><path d="M139.386 21.007c1.126.037 1.019 2.91-.08 3.006-1.098.097-1.047-3.044.08-3.006z" fill="#912D0F"/><path d="M139.596 21.053a.6.6 0 0 0-.207-.046c-1.126-.038-1.177 3.103-.08 3.006a.622.622 0 0 0 .252-.084c-.847-.877-.247-2.323.035-2.876z" fill="#74002D" opacity=".25" style="mix-blend-mode:multiply"/><path d="M139.758 21.86c.373-.273.526.916.14 1.191-.387.276-.513-.92-.14-1.19zm-1.062-.719l.498.745-1.193.106" fill="#FFF"/><path d="M132.677 20.302c1.12 3.154 1.133 7.177-1.707 7.417-3.351.284-3.416-5.222-2.063-8 .886-1.82 3.008-1.564 3.77.583z" fill="#F24E4E" opacity=".25"/><path d="M131.053 19.896c1.754.088 2.04 6.37.014 6.388-2.025.018-1.767-6.48-.014-6.388z" fill="#FFF"/><path d="M132.042 21.439c-1.329-.073-.955 3.187-.038 3.288.918.101 1.367-3.216.038-3.288z" fill="#74002D"/><path d="M131.79 21.471c-1.022.334-.64 3.162.214 3.256.218.024.408-.146.556-.414-1.378-.401-.876-2.463-.77-2.842z" fill="#74002D" opacity=".25" style="mix-blend-mode:multiply"/><path d="M132.33 22.405c.233-.16.426.807.116 1.001-.31.195-.351-.84-.117-1.001zm-1.218-.47l.796.477-.94.682" fill="#FFF"/><path d="M133.531 20.571l-.82-.04a152.55 152.55 0 0 1-1.803-.104l-2.623-.156.02-1.047 2.627-.054a172 172 0 0 1 1.805-.034l.821-.009-.027 1.444zM137.14 17.9l-.2 1.422 4.015-.103.02-.626z" fill="#74002D"/><path d="M134.486 14.387c-3.123 19.011 6.945 16.325 7.43 12.232.325-2.742-2.572-2.55-4.009-1.563-2.098-3.78-1.67-10.603-1.67-10.603l-1.751-.066z" fill="#EA425F"/><path d="M140.358 28.959c-7.299-.709-5.643-12.224-5.233-14.547l-.64-.025c-2.412 14.676 3.038 16.421 5.873 14.572z" fill="#74002D" opacity=".25" style="mix-blend-mode:multiply"/><g fill="#74002D"><path d="M127.334 28.688l-.114.026a8.417 8.417 0 0 1-.31.064 11.398 11.398 0 0 1-1.88.163 8.603 8.603 0 0 1-.848-.035 11.113 11.113 0 0 1-.905-.116c-.154-.03-.31-.056-.462-.095l-.232-.055-.23-.065c-.154-.04-.304-.096-.455-.145-.151-.049-.297-.114-.445-.17-.149-.055-.29-.127-.43-.195a5.621 5.621 0 0 1-.406-.216c-.13-.078-.26-.15-.382-.232-.121-.082-.241-.16-.353-.243l-.322-.248-.287-.25c-.094-.08-.173-.165-.252-.243-.08-.077-.158-.15-.22-.225-.131-.15-.251-.275-.338-.387l-.276-.353.94-.645.218.318c.069.104.165.216.27.351.05.07.116.133.178.207.062.074.128.15.207.221l.234.231.266.23c.092.08.194.15.294.23.1.08.207.146.32.223.113.076.229.138.345.207.116.068.243.129.367.195s.255.121.387.175c.133.054.264.11.401.155l.207.071.207.062c.137.044.278.076.414.112.278.065.555.12.829.156.273.038.535.062.785.081.25.019.491.022.712.018a9.733 9.733 0 0 0 1.356-.105l.103-.017.107.544z"/></g><g fill="#74002D"><path d="M126.518 28.21c-2.445.554-8.58.682-11.932-5.015-.144 4.758 1.698 8.214 4.4 10.412l1.321-.86.104 1.862c6.1 3.668 15.547 2.137 16.936-4.567 1.41-6.817-9.933-9.085-10.829-1.832z"/><path d="M114.695 23.488l-.117.043c-.05 4.586 1.77 7.929 4.404 10.075l1.32-.858.103 1.855c4.185 2.519 9.714 2.531 13.381.16-16.308 3.32-19.09-11.275-19.09-11.275z" opacity=".25" style="mix-blend-mode:multiply"/></g><g><path d="M103.581 16.433c5.944-3.37 8.137 5.136 2.306 6.732l-2.306-6.732z" fill="#EFA17F"/><path d="M104 16.867l.065-.029c.042-.017.103-.043.184-.073.22-.082.445-.15.673-.207.14-.037.297-.07.462-.104.173-.029.349-.049.525-.059.09-.008.185 0 .28-.007.095-.007.192 0 .288.018.196.019.39.059.578.12.188.063.368.15.533.261.158.11.3.242.42.392l.086.11c.026.036.049.076.073.114l.069.113.056.115.055.113c.016.038.029.077.042.114.025.075.058.146.075.217a3.5 3.5 0 0 1 .09.39c.02.1.035.2.045.302l.026.266-.134.01-.03-.26a2.871 2.871 0 0 0-.047-.293 3.361 3.361 0 0 0-.091-.373c-.017-.069-.049-.135-.074-.207-.013-.035-.025-.072-.041-.104l-.053-.103-.054-.109-.066-.103c-.023-.035-.044-.072-.068-.104l-.081-.103a1.838 1.838 0 0 0-.885-.592 2.53 2.53 0 0 0-.542-.103c-.09-.013-.182-.01-.272-.014-.09-.004-.179 0-.267.01a4.609 4.609 0 0 0-.95.167c-.22.06-.437.13-.65.213a2.984 2.984 0 0 0-.237.104l-.083-.202z" opacity=".25" style="mix-blend-mode:multiply" fill="#F24E4E"/><path fill="#EA425F" d="M105.155 17.305l2.615 3.43-.218.171-2.722-3.347z"/><path fill="#EA425F" d="M107.818 18.399l-3.393 2.265-.224-.346 3.467-2.152z"/></g><g><path d="M110.914 16.935s14.184-4.284 28.781-1.993C143.051 5.128 120.247.138 115.61 2.944c-3.439 2.085-4.423 9.066-4.695 13.991z" fill="#F24E4E"/><path d="M129.308 9.362c-.368-4.437 5.526-2.624 2.042.362l.067 1.12s2.6-1.563 2.567-3.456c-.05-2.812-6.184-2.059-5.612 2.057.02.148.151.255.3.246l.374-.025a.282.282 0 0 0 .262-.304z" fill="#FFD073"/><path d="M130.211 7.992c-.268.536-.31 4.69.066 5.076.377.386.952.26 1.13-.089.18-.35.208-5.196.02-5.492-.189-.297-.948-.03-1.216.505z" fill="#FFD073"/><path d="M131.09 10.654c1.368 3.123 3.68 4.054 5.213 1.551a.145.145 0 0 0 .011-.127l-.123-.31a.14.14 0 0 0-.227-.053c-1.324 1.255-2.624 1.272-4.037-1.856l-.837.795z" fill="#FFD073"/><path d="M136.202 7.012c.056 4.715-4.126 7.26-4.126 7.26l7.734.276c.828-3.013-.82-5.554-3.608-7.536z" fill="#74002D" opacity=".5" style="mix-blend-mode:multiply"/><path d="M111.354 12.424a50.386 50.386 0 0 0-.44 4.51s7.364-2.224 16.94-2.61l.037-.017c-5.303-6.55-13.96-3.116-16.537-1.883z" fill="#D83D54"/><path d="M116.07 2.716a3.134 3.134 0 0 0-.465.23c-3.345 2.094-4.286 9.08-4.69 13.988 0 0 5.57-1.682 13.318-2.379-6.756-2.943-7.952-9.587-8.163-11.839z" fill="#74002D" opacity=".25" style="mix-blend-mode:multiply"/><path d="M110.563 12.219l.049-.028.149-.084c.127-.071.31-.17.55-.29a19.829 19.829 0 0 1 2.017-.884 18 18 0 0 1 1.394-.465c.501-.144 1.035-.28 1.593-.397.282-.05.565-.11.858-.146l.439-.061.446-.043.224-.022.227-.011.456-.022h.457c.152 0 .31 0 .459.012.31.02.612.032.915.077.151.02.303.035.454.06l.447.085.222.042c.074.015.146.038.219.055l.433.115c.145.033.281.09.421.135l.414.141c.266.11.526.225.78.336l.717.382.648.414c.207.142.39.293.574.43.174.133.341.276.5.426l.228.207.103.097.098.104.359.376c.104.104.202.214.295.328l.527.648-.509.39-.517-.605a3.829 3.829 0 0 0-.286-.305l-.346-.348-.08-.092-.103-.09-.217-.187a5.753 5.753 0 0 0-.478-.39c-.175-.124-.352-.262-.543-.39l-.61-.373-.673-.34c-.237-.103-.48-.2-.725-.297l-.385-.123c-.13-.04-.257-.089-.392-.117l-.404-.097c-.067-.016-.135-.035-.207-.048l-.207-.035-.414-.071c-.14-.02-.282-.03-.424-.046-.281-.037-.569-.041-.854-.054-.143-.01-.287 0-.43 0-.142 0-.285 0-.428.008l-.427.029-.212.014-.207.025-.42.049-.413.066c-.275.04-.543.103-.808.155a17.82 17.82 0 0 0-1.506.408c-.471.153-.914.31-1.32.47-.404.158-.767.319-1.085.47-.318.153-.592.29-.815.406-.222.117-.394.214-.507.282l-.126.074-.045.028-.549-.883z" fill="#74002D"/><path d="M110.298 16.828l.333-.096a58.79 58.79 0 0 1 2.389-.618c.564-.136 1.201-.28 1.899-.427a99.53 99.53 0 0 1 2.258-.449 78.24 78.24 0 0 1 2.533-.428c.44-.072.89-.13 1.346-.197.457-.067.914-.12 1.379-.177a102.06 102.06 0 0 1 2.821-.285l.71-.058.71-.047c.472-.035.943-.052 1.41-.075.931-.041 1.855-.06 2.746-.063.445 0 .884.01 1.313.012.429.003.848.028 1.257.04l.304.012.3.018.584.035c.384.02.754.052 1.11.083.71.054 1.36.14 1.935.207.576.069 1.075.152 1.486.213l1.288.228-.076.405-1.277-.206c-.408-.055-.904-.124-1.474-.193a32.23 32.23 0 0 0-1.919-.176c-.352-.027-.72-.054-1.1-.069l-.58-.028-.296-.014-.302-.008c-.404-.007-.82-.023-1.242-.023h-1.301c-.884.014-1.797.044-2.723.097-.463.029-.932.053-1.398.093l-.703.056-.704.066a77.67 77.67 0 0 0-4.16.513 82.2 82.2 0 0 0-1.33.207 86.81 86.81 0 0 0-2.506.456c-.796.155-1.544.317-2.234.474-.69.157-1.319.31-1.876.447-.557.136-1.035.267-1.435.378-.401.11-.708.199-.918.26l-.32.098-.237-.761z" fill="#D83D54"/></g><g><path d="M132.082 14.284s8.756-1.758 6.919-12.017c0 0 9.799-5.187 19.03.5-2.228 7.987-9.716 12.112-17.87 12.55l-8.08-1.033z" fill="#D83D54"/><path d="M133.222 14.647c.124-.043.269-.103.405-.158.135-.055.274-.119.414-.182a14.185 14.185 0 0 0 2.337-1.376c.978-.7 1.842-1.546 2.562-2.509a9.25 9.25 0 0 0 1.806-4.972 8.13 8.13 0 0 0 .015-.899c-.012-.3-.03-.6-.058-.9l-.03-.311.273-.123c2.177-1 4.54-1.53 6.937-1.552.793-.008 1.585.038 2.372.136a18.63 18.63 0 0 1 4.584 1.173c.735.29 1.45.632 2.137 1.024.345.195.68.406 1.007.632.33.226.647.474.946.741l-.352.378a7.307 7.307 0 0 0-.882-.703c-.31-.216-.64-.414-.973-.597a16.148 16.148 0 0 0-2.087-.948 18.018 18.018 0 0 0-4.452-1.042 17.06 17.06 0 0 0-2.284-.083 16.127 16.127 0 0 0-6.588 1.616l.243-.435a13.089 13.089 0 0 1 .073 1.943 7.92 7.92 0 0 1-.094.973 10.175 10.175 0 0 1-1.824 4.501 12.66 12.66 0 0 1-2.74 2.75 15.188 15.188 0 0 1-2.486 1.505l-.444.207a8.929 8.929 0 0 1-.467.188l-.35-.977z" fill="#74002D"/></g><g><path d="M56.422 60.15l-3.637 6.233s10.43 9.65 26.95 9.497l.136-5.953-23.45-9.778z" fill="#252528"/><path d="M53.422 65.296c2.098 1.84 11.689 9.35 26.39 7.393l.063-2.762-23.453-9.778-3 5.147z" fill="#74002D" opacity=".5" style="mix-blend-mode:multiply"/><path d="M52.155 65.212l.066.06.192.166c.17.147.425.36.758.62.332.261.742.58 1.217.931.475.351 1.023.743 1.632 1.148.301.206.621.413.953.626.333.213.678.43 1.036.644l.547.327c.186.11.376.215.567.324.38.222.778.433 1.18.65.2.112.408.213.614.32.206.108.414.215.621.318l.64.31.324.156.328.147.66.297c.22.104.446.189.67.284.225.095.449.19.676.278l.684.263.341.131.345.121.69.241c.228.084.461.15.692.225l.69.217c.463.13.922.258 1.377.381.458.104.91.223 1.356.322.446.1.89.182 1.322.263l1.274.207 1.215.146c.196.026.39.037.58.052l.559.043c.182.012.361.03.536.038l.518.017c.333.009.65.024.948.026l.833-.011.371-.005c.118 0 .23 0 .337-.013l1.346-.082.045.466-1.36.104c-.104.01-.223.015-.343.018l-.376.013-.847.027c-.302 0-.621-.008-.964-.01l-.517-.008c-.178 0-.36-.02-.546-.029l-.57-.033c-.193-.013-.39-.019-.59-.043l-1.242-.126-1.3-.186c-.442-.073-.892-.161-1.346-.243-.455-.082-.917-.2-1.386-.303-.47-.102-.932-.239-1.408-.364l-.706-.207c-.236-.071-.476-.134-.709-.216l-.706-.233-.353-.118-.35-.127-.7-.254c-.232-.085-.461-.181-.692-.271-.23-.09-.46-.18-.687-.277l-.678-.29-.336-.144-.331-.152-.658-.302-.643-.31a51.435 51.435 0 0 1-.63-.31c-.414-.215-.822-.423-1.214-.641a12.238 12.238 0 0 1-.582-.32l-.564-.323c-.371-.207-.724-.43-1.069-.637a23.591 23.591 0 0 1-.984-.62c-.628-.402-1.19-.793-1.686-1.138-.497-.344-.92-.667-1.265-.93a27.892 27.892 0 0 1-.796-.634l-.207-.176-.07-.06.671-.78z" fill="#252528"/><path d="M53.344 64.013s19.898-40.765 55.785-31.932l.152 3.414s-27.153 5.162-28.772 35.72c-16.002 1.673-27.165-7.202-27.165-7.202z" fill="#F24E4E"/><path d="M97.17 40.742l-2.174-2.7s-9.88 2.492-15.656 13.505a65.276 65.276 0 0 1 5.724 2.32c3.276-6.157 7.829-10.332 12.106-13.125z" fill="#FFF"/><path d="M93.067 43.836a38.916 38.916 0 0 1 8.696-5.679l-.103-5.457s-5.177 1.573-8.593 11.136z" fill="#74002D"/><path d="M61.528 68.295l.29-.534c.192-.345.478-.85.85-1.484a102.335 102.335 0 0 1 8.373-12.098 89.087 89.087 0 0 1 3.159-3.7 74.325 74.325 0 0 1 3.489-3.615 61.792 61.792 0 0 1 3.746-3.35 50.898 50.898 0 0 1 3.902-2.912 40.29 40.29 0 0 1 3.914-2.332 34.019 34.019 0 0 1 3.727-1.67 29.994 29.994 0 0 1 3.298-1.02l.725-.171.681-.134c.436-.092.843-.14 1.207-.198.183-.031.356-.048.518-.065l.46-.05c.284-.036.529-.046.724-.06l.606-.04.01.225-.6.041c-.195.015-.436.025-.719.063l-.454.051c-.162.018-.335.036-.518.067-.361.06-.764.104-1.194.201l-.676.135-.724.171a29.745 29.745 0 0 0-3.268 1.022 33.755 33.755 0 0 0-3.691 1.67 40.354 40.354 0 0 0-3.863 2.33c-1.3.88-2.598 1.862-3.869 2.91a58.907 58.907 0 0 0-3.716 3.345 75.11 75.11 0 0 0-3.46 3.61 90.96 90.96 0 0 0-3.132 3.698 102.122 102.122 0 0 0-8.3 12.078 69.45 69.45 0 0 0-.84 1.48l-.286.527-.37-.191z" fill="#74002D"/><path d="M80.509 71.21a47.26 47.26 0 0 1 .182-2.337c-15.53-6.17-2.51-26.815 2.977-34.892-19.689 8.275-30.304 29.99-30.323 30.03 6.014 4.764 16.826 8.284 27.165 7.2h-.001z" fill="#74002D" opacity=".25" style="mix-blend-mode:multiply"/><path d="M53.344 64.013c.008.006 4.414 3.259 11.996 5.666-4.71-7.926-.492-18.929 2.75-25.238-9.659 9.155-14.742 19.562-14.746 19.572z" fill="#74002D" opacity=".25" style="mix-blend-mode:multiply"/><path d="M53.095 63.254l.06.058c.037.037.104.093.178.166.16.145.403.353.725.607a23.464 23.464 0 0 0 2.806 1.892c.15.089.31.174.468.264.157.09.32.18.49.265l.51.268.534.26.273.133.28.128.571.257.59.247.3.124.31.117.621.237.635.222c.423.155.863.28 1.301.422.219.072.443.127.666.19.223.065.446.127.672.187l.68.167c.227.054.454.114.682.159.913.2 1.833.373 2.744.507.456.063.906.138 1.356.18l.669.074.33.036.33.026c.436.032.866.072 1.287.095l1.235.054c.402.016.793.012 1.171.019l.557.006c.183 0 .362-.007.538-.01l1.006-.022c.32-.007.621-.031.907-.045l.797-.043c.246-.01.472-.038.676-.054l1.282-.111.113 1.231-1.312.083c-.207.01-.44.033-.692.037l-.815.025c-.291.006-.601.024-.932.023h-1.578l-.57-.02c-.386-.016-.785-.021-1.195-.047l-1.262-.086c-.43-.034-.869-.086-1.314-.13l-.335-.034-.338-.045-.681-.092c-.458-.055-.917-.143-1.381-.22a40.72 40.72 0 0 1-2.796-.587c-.233-.052-.462-.119-.693-.18l-.69-.187c-.23-.066-.456-.139-.683-.207-.227-.068-.453-.133-.676-.212-.444-.154-.89-.295-1.319-.463l-.643-.242-.626-.258-.31-.127-.304-.135-.597-.266-.576-.278-.283-.136-.275-.142-.54-.28-.517-.285c-.17-.092-.334-.188-.494-.284-.16-.096-.319-.186-.471-.281a28.527 28.527 0 0 1-1.63-1.083c-.474-.34-.872-.656-1.194-.925a15.06 15.06 0 0 1-.731-.648c-.082-.08-.144-.138-.188-.183l-.063-.064.354-.354z" fill="#F24E4E"/></g><g fill="#252528"><path d="M95.673 28.873l.708.186.868.247c.339.104.725.217 1.163.363.217.07.445.15.683.235.238.086.488.175.748.273.517.196 1.077.42 1.665.686.588.266 1.207.576 1.847.943a14.78 14.78 0 0 1 1.95 1.318 8.882 8.882 0 0 1 1.83 1.965c.28.419.508.87.676 1.345a5.235 5.235 0 0 1 .103 3.176 6.761 6.761 0 0 1-.61 1.472 10.505 10.505 0 0 1-1.918 2.424c-1.482 1.416-3.22 2.532-5.045 3.496a40.19 40.19 0 0 1-5.724 2.425 47.53 47.53 0 0 1-2.974.904c-.998.269-1.997.506-2.996.713a51.187 51.187 0 0 1-5.92.872 43.97 43.97 0 0 1-5.603.137 33.441 33.441 0 0 1-5.006-.577 24.838 24.838 0 0 1-4.115-1.17 17.732 17.732 0 0 1-1.647-.725c-.25-.12-.485-.249-.711-.368a9.834 9.834 0 0 1-.633-.366 15.3 15.3 0 0 1-1.76-1.241c-.194-.154-.336-.284-.433-.367l-.147-.129.783-.88.138.115c.091.075.223.19.405.329a14.09 14.09 0 0 0 1.646 1.108c.183.11.385.214.592.328.207.113.432.222.669.328.469.22.988.439 1.553.642a23.5 23.5 0 0 0 3.92 1.025c1.587.271 3.192.425 4.802.46 1.805.04 3.61-.033 5.404-.222a50.147 50.147 0 0 0 11.46-2.592 38.4 38.4 0 0 0 5.432-2.381c1.708-.931 3.304-2 4.57-3.247a8.595 8.595 0 0 0 1.539-1.986c.373-.694.567-1.405.53-2.069a3.549 3.549 0 0 0-.665-1.851 6.945 6.945 0 0 0-1.436-1.487 12.743 12.743 0 0 0-1.686-1.126 20.172 20.172 0 0 0-1.68-.848 31.466 31.466 0 0 0-2.892-1.15c-.414-.145-.78-.265-1.1-.373l-.818-.255-.7-.213.535-1.892z"/></g><g><path d="M101.908 67.999s-3.645-6.585-5.044-.425a.49.49 0 0 0 .352.581l4.569 1.2" fill="#EFA17F"/><path d="M100.232 68.988l13.977 19.076.895-.888-11.28-21.216c-2.963-3.45-3.592 3.028-3.592 3.028z" fill="#EFA17F"/><path fill="#F24E4E" opacity=".25" style="mix-blend-mode:multiply" d="M102.22 67.573l-1.988 1.415 13.077 17.854L102.53 70.68z"/><path fill="#490D26" d="M108.8 73.107l-3.415 1.185-.129-.392 3.454-1.063zm.56 2.502l-2.806 1.012-.134-.39 2.844-.903zm1.71 3.469l-2.806 1.013-.133-.39 2.844-.902zm-.992-1.718l-2.185.487-.065-.203 2.136-.642z"/></g><g><path d="M115.023 86.63a7.174 7.174 0 0 0 1.193-.57s3.473 1.966 3.68 4.765l-2.037 1.015-2.836-5.21z" fill="#EA425F"/><path d="M112.562 86.986l2.006-1.501s6.805 3.683 4.94 10.985c-5.51 1.09-8.149-3.153-8.149-3.153s2.958-3.384 1.203-6.33z" fill="#EFA17F"/><path d="M113.105 93.363c2.328-3.489.855-6.044.181-6.919l-.725.543c1.755 2.947-1.203 6.33-1.203 6.33s2.638 4.241 8.148 3.154c.156-.604.256-1.222.3-1.845-1.74.306-4.839.526-6.701-1.263z" fill="#F24E4E" opacity=".25" style="mix-blend-mode:multiply"/></g><g><path d="M100.183 67.812s-4.181-12.057-.536-28.079l5.667.213-1.683 25.882c-.664 3.37-3.448 1.984-3.448 1.984z" fill="#EFA17F"/><path d="M105.006 45l-6.142-1.139c-1.535 9.943-.23 18.133.679 21.749.344.256.706.501 1.088.73-1.946-5.701-1.263-16.757-1.263-16.757s2.82-1.094 5.406-.369l.232-4.215z" fill="#F24E4E" opacity=".25" style="mix-blend-mode:multiply"/><path d="M97.383 45.36l-.083 2.99s4.473-1.274 9.042-.36l.44-1.995-9.399-.635z" fill="#252528"/><path d="M106.271 44.862l1.441-.07-.504 2.29c-4.885-1.42-10.353.289-10.353.289-1.121-20.211 16.254-19.906 9.416-2.51z" fill="#F24E4E"/><path d="M104.123 33.524c1.346-.682 3.704 2.764 2.277 4.096-1.426 1.332-3.623-3.413-2.277-4.096z" fill="#FFF" opacity=".25" style="mix-blend-mode:overlay"/><path d="M107.31 46.614c-9.382-1.345-6.56-11.682-5.92-13.688-2.63 1.875-4.969 6.62-4.53 14.444 0 0 5.463-1.709 10.352-.289l.098-.467z" fill="#74002D" opacity=".25" style="mix-blend-mode:multiply"/><path d="M98.735 36.166c-1.316 2.538-2.151 6.255-1.876 11.204a22.239 22.239 0 0 1 4.39-.784c-4.023-1.787-3.092-7.906-2.514-10.42z" fill="#74002D" opacity=".25" style="mix-blend-mode:multiply"/></g></g></svg>